<?xml version="1.0" encoding="iso-8859-1"?>
<!-- Uploaded to: SVG Repo, www.svgrepo.com, Generator: SVG Repo Mixer Tools -->
<svg version="1.1" id="Layer_1" xmlns="http://www.w3.org/2000/svg" xmlns:xlink="http://www.w3.org/1999/xlink" 
	 viewBox="0 0 512 512" xml:space="preserve">
<rect x="153.361" y="65.14" style="fill:#FFFFFF;" width="205.278" height="95.191"/>
<path style="fill:#1E0478;" d="M512,144.296v172.838c0,19.889-16.176,36.066-36.066,36.066h-95.582v104.517
	c0,5.993-4.864,10.857-10.857,10.857H142.504c-5.993,0-10.857-4.864-10.857-10.857V353.2H36.066C16.176,353.2,0,337.023,0,317.134
	V144.296c0-19.889,16.176-36.066,36.066-36.066h95.582V54.283c0-5.993,4.864-10.857,10.857-10.857h226.991
	c5.993,0,10.857,4.864,10.857,10.857v53.947h95.582C495.824,108.23,512,124.406,512,144.296z M490.287,317.134V144.296
	c0-7.915-6.438-14.353-14.353-14.353h-47.976v41.244c0,5.993-4.864,10.857-10.857,10.857H94.898
	c-5.993,0-10.857-4.864-10.857-10.857v-41.244H36.066c-7.915,0-14.353,6.438-14.353,14.353v172.838
	c0,7.915,6.438,14.353,14.353,14.353h95.582v-27.608h-19.803c-5.993,0-10.857-4.864-10.857-10.857s4.864-10.857,10.857-10.857
	h30.659h226.991h30.659c5.993,0,10.857,4.864,10.857,10.857s-4.864,10.857-10.857,10.857h-19.803v27.608h95.582
	C483.849,331.486,490.287,325.048,490.287,317.134z M406.245,160.331v-30.388h-25.893v30.388H406.245z M358.639,446.86V303.878
	H153.361V446.86L358.639,446.86L358.639,446.86z M358.639,160.331V65.14H153.361v95.191H358.639z M131.648,160.331v-30.388h-25.893
	v30.388H131.648z"/>
<path style="fill:#9B8CCC;" d="M490.287,144.296v172.838c0,7.915-6.438,14.353-14.353,14.353h-95.582v-27.608h19.803
	c5.993,0,10.857-4.864,10.857-10.857s-4.864-10.857-10.857-10.857h-30.659H142.504h-30.659c-5.993,0-10.857,4.864-10.857,10.857
	s4.864,10.857,10.857,10.857h19.803v27.608H36.066c-7.915,0-14.353-6.438-14.353-14.353V144.296c0-7.915,6.438-14.353,14.353-14.353
	h47.976v41.244c0,5.993,4.864,10.857,10.857,10.857h322.204c5.993,0,10.857-4.864,10.857-10.857v-41.244h47.976
	C483.849,129.943,490.287,136.381,490.287,144.296z M82.391,219.261c0-7.513-6.08-13.603-13.593-13.603s-13.603,6.091-13.603,13.603
	s6.091,13.603,13.603,13.603C76.311,232.864,82.391,226.774,82.391,219.261z"/>
<rect x="380.352" y="129.943" style="fill:#6F7CCD;" width="25.893" height="30.388"/>
<path style="fill:#94E7EF;" d="M358.639,303.878V446.86H153.361V303.878H358.639z M320.684,342.343
	c0-6.004-4.853-10.857-10.857-10.857H202.173c-6.004,0-10.857,4.853-10.857,10.857c0,5.993,4.853,10.857,10.857,10.857h107.655
	C315.831,353.2,320.684,348.336,320.684,342.343z M263.708,397.31c0-5.993-4.864-10.857-10.857-10.857h-50.679
	c-6.004,0-10.857,4.864-10.857,10.857s4.853,10.857,10.857,10.857h50.679C258.844,408.167,263.708,403.303,263.708,397.31z"/>
<g>
	<path style="fill:#1E0478;" d="M309.827,331.486c6.004,0,10.857,4.853,10.857,10.857c0,5.993-4.853,10.857-10.857,10.857H202.173
		c-6.004,0-10.857-4.864-10.857-10.857c0-6.004,4.853-10.857,10.857-10.857H309.827z"/>
	<path style="fill:#1E0478;" d="M252.852,386.454c5.993,0,10.857,4.864,10.857,10.857s-4.864,10.857-10.857,10.857h-50.679
		c-6.004,0-10.857-4.864-10.857-10.857s4.853-10.857,10.857-10.857H252.852z"/>
</g>
<rect x="105.755" y="129.943" style="fill:#6F7CCD;" width="25.893" height="30.388"/>
<path style="fill:#1E0478;" d="M68.799,205.658c7.513,0,13.593,6.091,13.593,13.603s-6.08,13.603-13.593,13.603
	s-13.603-6.091-13.603-13.603S61.286,205.658,68.799,205.658z"/>
</svg>