<svg xmlns="http://www.w3.org/2000/svg" version="1.1" xmlns:xlink="http://www.w3.org/1999/xlink" xmlns:svgjs="http://svgjs.com/svgjs" width="1440" height="560" preserveAspectRatio="none" viewBox="0 0 1440 560"><g mask="url(&quot;#SvgjsMask1002&quot;)" fill="none"><rect width="1440" height="560" x="0" y="0" fill="url(#SvgjsLinearGradient1003)"></rect><path d="M1440 0L888.5 0L1440 68.78z" fill="rgba(255, 255, 255, .1)"></path><path d="M888.5 0L1440 68.78L1440 118.17L459.52 0z" fill="rgba(255, 255, 255, .075)"></path><path d="M459.52 0L1440 118.17L1440 289.36L376.75 0z" fill="rgba(255, 255, 255, .05)"></path><path d="M376.75 0L1440 289.36L1440 375.24L257.84000000000003 0z" fill="rgba(255, 255, 255, .025)"></path><path d="M0 560L300.76 560L0 373.27z" fill="rgba(0, 0, 0, .1)"></path><path d="M0 373.27L300.76 560L380.84 560L0 327.63z" fill="rgba(0, 0, 0, .075)"></path><path d="M0 327.63L380.84 560L425.42999999999995 560L0 202.83999999999997z" fill="rgba(0, 0, 0, .05)"></path><path d="M0 202.83999999999997L425.42999999999995 560L696.8699999999999 560L0 142.64999999999998z" fill="rgba(0, 0, 0, .025)"></path></g><defs><mask id="SvgjsMask1002"><rect width="1440" height="560" fill="#ffffff"></rect></mask><linearGradient x1="15.28%" y1="-39.29%" x2="84.72%" y2="139.29%" gradientUnits="userSpaceOnUse" id="SvgjsLinearGradient1003"><stop stop-color="#0e2a47" offset="0"></stop><stop stop-color="#00459e" offset="1"></stop></linearGradient></defs></svg>